<svg xmlns="http://www.w3.org/2000/svg" width="325" height="225.144" viewBox="0 0 325 225.144">
  <g id="logo-centro" transform="translate(-106.329 -60.793)">
    <path id="Trazado_1" data-name="Trazado 1" d="M518.047,441.4a3.484,3.484,0,0,0-1.339.349c-.1.04-.188.079-.278.112-.537.2-1.072.41-1.59.615a23.537,23.537,0,0,1-3.892,1.3,11.076,11.076,0,0,1-2.208.257c-1.909,0-3.769-.584-4.455-4.82a42.185,42.185,0,0,1-.39-5.858c-.009-.455-.018-.91-.031-1.364l0-.082a2.814,2.814,0,0,0-1.248-2.678,4.044,4.044,0,0,0-2.06-.526c-2.376,0-5.189,1.787-5.426,4.351-.069.743-.124,1.489-.18,2.235-.112,1.51-.228,3.073-.462,4.57-1.8,11.534-6.208,22.557-13.473,33.7a26.024,26.024,0,0,1-8.655,8.532,1.638,1.638,0,0,1-.505.227,1.4,1.4,0,0,1-.289-.382,12.114,12.114,0,0,1-1.7-5.789,43.185,43.185,0,0,1,2.608-15.956,89.932,89.932,0,0,1,14.346-25.947q.306-.4.61-.8c1.762-2.323,3.426-4.519,6.353-5.11a2.307,2.307,0,0,0,1.791-2.467,2.231,2.231,0,0,0-1.916-1.921,10,10,0,0,0-2.714-.381,10.774,10.774,0,0,0-4.987,1.287,37.927,37.927,0,0,0-9.06,6.894c-6.763,6.611-12,14.782-16,24.979l-.088.227a3.823,3.823,0,0,1-.588,1.153c-4.133,4.732-8.614,9.683-13.955,13.638-.225.167-.448.34-.672.514a10.723,10.723,0,0,1-1.882,1.269c-.265-4.447,1.8-8.157,4.132-11.879,1.985-3.171,4.066-6.362,6.079-9.447,1.776-2.723,3.613-5.538,5.38-8.335a36.693,36.693,0,0,0,4.651-10.406,4.892,4.892,0,0,0-.431-4,4.624,4.624,0,0,0-3.315-1.9,12.685,12.685,0,0,0-1.9-.146,11.141,11.141,0,0,0-3.19.458c-4.177,1.247-7.524,3.914-10.476,6.268A104.3,104.3,0,0,0,428.44,450.91q1.241-2.449,2.487-4.9c2.37-4.659,4.82-9.476,7.161-14.252a49.389,49.389,0,0,0,4.72-13.383c.293-1.73.094-2.934-.627-3.787a4.334,4.334,0,0,0-3.508-1.231h-.185a17.785,17.785,0,0,0-8.748,2.764,60.131,60.131,0,0,0-14.765,12.536A171.832,171.832,0,0,0,392.949,460.3c-.187.339-.37.68-.553,1.025l-.033.062.226-.841a187.039,187.039,0,0,1,6.228-20.117,13.621,13.621,0,0,0,.7-3.126,3.257,3.257,0,0,0-2.634-3.971,7.755,7.755,0,0,0-2.2-.323,6.923,6.923,0,0,0-5.693,2.921c-3.451,4.818-5.4,10.363-7.115,15.255a35.763,35.763,0,0,1-4.46,9.312c-2,2.8-3.952,5.687-5.839,8.483q-1.513,2.241-3.037,4.475a107.79,107.79,0,0,1-10.488,13.288,35.157,35.157,0,0,1-5.264,4.774,11.48,11.48,0,0,1-.763-5.043c.312-7.944,2.048-16.369,5.463-26.516C363,443.585,371.453,428.91,379,416.713c.235-.38.4-.489.611-.555,4.483-1.394,9.711-2.973,15.028-4.075a60.613,60.613,0,0,1,12.281-1.229c.707,0,1.429.012,2.146.035.319.01.641.019.964.019a6.569,6.569,0,0,0,4.322-1.25,2.065,2.065,0,0,0-.444-3.726,10.007,10.007,0,0,0-3.872-.848c-.764-.036-1.548-.054-2.333-.054a80.392,80.392,0,0,0-16.575,2.071c-2.114.447-4.231.882-6.435,1.335l-1.034.213q.709-1.228,1.427-2.45c1.082-1.85,2.2-3.763,3.248-5.682a3.144,3.144,0,0,0,.4-2.782,3.244,3.244,0,0,0-2.457-1.5,8.384,8.384,0,0,0-1.654-.172,7.642,7.642,0,0,0-6.051,3.171c-3.891,4.8-7.111,8.826-10.165,13.249-.061.088-.12.178-.178.269-.218.338-.328.49-.472.529-1.539.424-3.083.9-4.577,1.365a74.135,74.135,0,0,1-9.22,2.426c-.075.013-.151.028-.229.043a2.858,2.858,0,0,1-.454.066h0a2.077,2.077,0,0,1,.4-.586c.458-.545.962-1.052,1.495-1.59.227-.228.453-.457.677-.689l.8-.826-.942-.654a5.436,5.436,0,0,0-3.12-.884,7.761,7.761,0,0,0-5.186,2.006c-1.046.977-3.494,3.265-2.333,6.26,1.059,2.732,4.021,2.741,5.3,2.741h.012c.207,0,.413,0,.617-.007a45.937,45.937,0,0,0,9.957-1.491c.572-.139,1.145-.272,1.747-.41l-.043.07a193.4,193.4,0,0,0-16.082,31.56,46.626,46.626,0,0,1-6.031,10.65c-.579.8-1.149,1.6-1.72,2.4s-1.16,1.632-1.75,2.44q-1,1.375-1.995,2.758c-3.974,5.517-8.084,11.222-13.248,15.844-.175.157-.332.318-.484.473-.122.125-.231.237-.335.334a9.991,9.991,0,0,1-.1-1.226l-.013-.3c-.233-4.737.914-9.341,2.213-14.033,2.136-7.712,5.963-14.883,9.664-21.818l.529-.992q.939-1.759,1.9-3.508c.7-1.289,1.427-2.622,2.127-3.943a2.646,2.646,0,0,0,.289-2.445,2.006,2.006,0,0,0-1.687-1,16.465,16.465,0,0,0-1.851-.111,8.247,8.247,0,0,0-6.778,2.886c-9.185,11.343-14.715,21.706-17.4,32.614-1.526,6.192-1.5,10.94.071,15.4,1.169,3.308,3.406,4.916,6.837,4.916h.1a15.2,15.2,0,0,0,10.389-4.35,83.664,83.664,0,0,0,12.065-14.088,13.386,13.386,0,0,1-.245,1.53l-.1.1-.053.31c-.058.338-.48,3.518-.534,4.164l-.007.088.009.089a27.26,27.26,0,0,1,.022,5.555l-.012.117.186,1.354.026.081a12.37,12.37,0,0,1,.728,3.875l0,.167.3.878.14.152a3.12,3.12,0,0,1,.711,1.473l.049.21.729.933.268.095a.4.4,0,0,1,.3.3l.085.3.24.194a9.538,9.538,0,0,0,6.138,2.191A11.641,11.641,0,0,0,350,499.6a17.056,17.056,0,0,0,8.938-4.437c6.209-5.49,11.946-12.271,18.038-21.322a32.581,32.581,0,0,0,.9,9.612c.27,1,.773,2.854,2.768,3.258a11.61,11.61,0,0,0,2.3.225c4,0,7-1.849,8.228-5.074.75-1.97,1.676-3.931,2.57-5.827.571-1.21,1.161-2.46,1.706-3.712a173.775,173.775,0,0,1,16.668-29.909c4.16-5.971,8.85-12.172,14.943-17.079l.169-.136a41.709,41.709,0,0,1,3.476-2.609,81.213,81.213,0,0,1-5.372,11.043l-.551,1c-4.8,8.739-10.237,18.644-14.444,28.982l-.076.186a39.1,39.1,0,0,0-2.867,9.142c-.277,1.94.013,3.42.863,4.4a4.3,4.3,0,0,0,3.42,1.313,9.9,9.9,0,0,0,1.353-.1c4.046-.565,6.355-3.181,8.247-5.925,1.224-1.774,2.441-3.593,3.619-5.351,2.561-3.824,5.21-7.778,8.054-11.482,6.845-8.912,12.727-15.054,19.073-19.914l.216-.167a10.079,10.079,0,0,1,1.361-.94c-.008.023-.016.047-.023.07-1.331,4.21-3.864,7.673-6.552,11.348-4.023,5.5-8.184,11.19-11.241,17.544-1.49,3.1-3.048,6.745-2.678,10.864a5.334,5.334,0,0,0,4.847,5.091c.4.02.791.031,1.167.031a16.252,16.252,0,0,0,4.586-.611c4.217-1.224,7.424-3.8,10.261-6.393,1.216-1.112,2.427-2.229,3.7-3.4l.048-.045a28.006,28.006,0,0,0,.536,9.265c1.237,5.475,4.955,9.114,9.7,9.5.42.034.845.051,1.264.051A17.769,17.769,0,0,0,478.8,485.1c3.3-2.07,6.111-4.935,9.1-9.291,6.22-9.054,9.848-16.6,11.765-24.482.243-1,.513-1.991.8-3.041l.042-.156a8.995,8.995,0,0,0,2.929,1.378,17.084,17.084,0,0,0,4.044.49,19.32,19.32,0,0,0,7.135-1.449,9.305,9.305,0,0,0,4.486-3.19c.387-.564,1.294-1.884.457-3.125A1.79,1.79,0,0,0,518.047,441.4Z" transform="translate(-136.547 -226.145)" fill="#fff"/>
    <path id="Trazado_2" data-name="Trazado 2" d="M885.755,89.507a2.471,2.471,0,0,0-1.929-1.309,12.946,12.946,0,0,0-2.519-.257,10.409,10.409,0,0,0-7.593,3.2c-5.487,5.5-10.689,11.572-15.279,16.934-4.978,5.815-9.818,11.9-14.5,17.777-3.068,3.854-6.239,7.839-9.417,11.707-.79.962-1.58,1.95-2.344,2.9-3.058,3.823-6.22,7.776-10.076,10.921-.062.05-.118.1-.172.152a7.948,7.948,0,0,1-.154-1.1,20.539,20.539,0,0,1,.039-3.284c.946-8.626,4.245-16.653,7.347-23.368a125.09,125.09,0,0,1,9.566-16.367c.05-.076.1-.151.158-.227a2.366,2.366,0,0,0,.434-2.609,2.7,2.7,0,0,0-2.682-1.25h-.2a9.143,9.143,0,0,0-7.165,3.631,86.876,86.876,0,0,0-9.676,15.225,37.441,37.441,0,0,0-1.553,3.463,25.814,25.814,0,0,1-2.046,4.266c-5.027,7.816-10.063,15.375-16.369,21.94a35.233,35.233,0,0,1-4.813,4.393,15.61,15.61,0,0,1-.722-7.221c.476-7.136,2.11-14.551,5.3-24.045,4.551-13.552,11.211-26.976,21.593-43.527a1.468,1.468,0,0,1,.921-.665c8.51-2.655,17.608-5.248,27.042-5.248.86,0,1.724.022,2.57.064.247.013.574.027.915.027a6.046,6.046,0,0,0,3.637-1.01,2.37,2.37,0,0,0,1.2-2.2A2.322,2.322,0,0,0,855.62,70.6a9.432,9.432,0,0,0-3.384-.785c-.708-.018-1.414-.027-2.1-.027A61.753,61.753,0,0,0,838.6,70.8l-.25.047c-4.214.794-8.569,1.614-12.827,2.628q.546-.92,1.1-1.837c1.234-2.064,2.509-4.2,3.693-6.346a3.015,3.015,0,0,0,.378-2.8,3.361,3.361,0,0,0-2.6-1.55,8.5,8.5,0,0,0-1.531-.144,7.194,7.194,0,0,0-5.783,2.945q-1.008,1.256-2.024,2.505c-2.844,3.509-5.785,7.137-8.356,10.98l-.084.126c-.305.461-.445.643-.7.714-1.494.413-2.995.875-4.446,1.321a76.594,76.594,0,0,1-9.36,2.45l-.188.035a3.338,3.338,0,0,1-.351.054c-.011-.125.129-.277.2-.342.553-.533,1.161-1.038,1.748-1.526.248-.206.492-.41.731-.613l.691-.59-.539-.732a3.2,3.2,0,0,0-2.424-1.452,7.187,7.187,0,0,0-.828-.048A8.435,8.435,0,0,0,787.6,80.9c-.932,1.779-1.084,3.294-.452,4.5s1.96,1.946,3.951,2.2a17.247,17.247,0,0,0,2.143.131,24.254,24.254,0,0,0,4.877-.547c1.938-.4,3.874-.8,5.9-1.219l.63-.13a221.606,221.606,0,0,0-16.539,32.419,106.178,106.178,0,0,0-7.406,25.469,33.834,33.834,0,0,0,.7,14.081,8.942,8.942,0,0,0,8.66,6.662l.274,0a15.046,15.046,0,0,0,9.908-4.026,86.143,86.143,0,0,0,11.293-11.767c.01,1.125.052,2.18.167,3.258.382,3.592,2.425,5.7,5.907,6.1a15.109,15.109,0,0,0,1.729.1,14.8,14.8,0,0,0,9.481-3.549,67.008,67.008,0,0,0,8.745-8.785c3.511-4.111,6.925-8.406,10.227-12.559,1.795-2.259,3.635-4.575,5.494-6.863a153.187,153.187,0,0,0-7.633,21,41.217,41.217,0,0,0-1.836,14.576c.147,1.733.457,3.692,2.268,5.014a7.09,7.09,0,0,0,4.164,1.229,8.073,8.073,0,0,0,6.424-2.9c1.341-1.84.494-2.917.067-3.3-1.021-.905-.918-1.865-.646-3.485.043-.259.087-.517.122-.773a96.6,96.6,0,0,1,6.414-23.275,230.233,230.233,0,0,1,11.451-24.688,145.081,145.081,0,0,1,8.909-14.249c.849-1.189,1.726-2.418,2.482-3.724A2.446,2.446,0,0,0,885.755,89.507Z" transform="translate(-454.597)" fill="#fff"/>
    <path id="Trazado_3" data-name="Trazado 3" d="M137.083,478.006a57.383,57.383,0,0,0,19.359-8.382A97.6,97.6,0,0,0,188.357,433.6a35.426,35.426,0,0,0,3.927-12.045c.589-4.921-1.852-8.192-6.7-8.976a16.615,16.615,0,0,0-2.636-.212,21.266,21.266,0,0,0-9.746,2.653c-8.051,4.129-14.3,10.449-19.857,16.663-5.993,6.7-11.011,14.261-15.863,21.57-.662,1-1.334,2.009-2.011,3.024l1.883-5.114c2.594-7.046,5.277-14.332,7.891-21.509a14.938,14.938,0,0,0,1.206-5.706,3.092,3.092,0,0,0-2.8-3.283,8.336,8.336,0,0,0-1.352-.115,6.6,6.6,0,0,0-5.93,3.723,308.741,308.741,0,0,0-14.133,28.26,197.127,197.127,0,0,0-14.725,50.856,146.248,146.248,0,0,0-1.18,15.735,3.291,3.291,0,0,0,1.7,3.447,5.415,5.415,0,0,0,2.388.511c2.33,0,5.314-1.312,6.251-3.744.839-2.177,1.6-4.455,2.26-6.77l.593-2.084c1.785-6.273,3.63-12.758,5.82-19.009l.013-.036c.252-.718.5-1.422.764-2.107a56.543,56.543,0,0,0,1.369,11.629,19.807,19.807,0,0,0,4.066,8.92,12.191,12.191,0,0,0,9.665,4.234,21.973,21.973,0,0,0,4.527-.514,17.747,17.747,0,0,0,7.75-3.971c6.2-5.157,10.088-10.187,12.248-15.832a4.224,4.224,0,0,0,.169-3.247,2.658,2.658,0,0,0-1.538-1.4,4.135,4.135,0,0,0-1.46-.238c-1.58,0-4.2.754-4.816,2.372a32.986,32.986,0,0,1-8.939,12.526,12.076,12.076,0,0,1-4.669,2.853,3.289,3.289,0,0,1-.955.16,2.341,2.341,0,0,1-1.878-1.052,21.314,21.314,0,0,1-3.919-7.861,54.22,54.22,0,0,1-1.537-18.8C136.265,478.293,136.355,478.179,137.083,478.006Zm43.645-59.577h.031c.031.027.209.215.4,1.073.789,3.573-.525,6.885-1.937,9.971-4.174,9.118-10.413,16.627-15.967,22.77a105.93,105.93,0,0,1-15.382,14.447,34.194,34.194,0,0,1-12.849,5.947c3.907-7.211,8.3-15.188,13.241-22.48a125.844,125.844,0,0,1,20.808-24.064,49.234,49.234,0,0,1,10.614-7.3A2.7,2.7,0,0,1,180.728,418.429Z" transform="translate(0 -237.149)" fill="#fff"/>
    <path id="Trazado_4" data-name="Trazado 4" d="M356.454,181.712a3.032,3.032,0,0,0-.967,2.648c.278.966,1.3,1.416,2.163,1.7a2.327,2.327,0,0,1,.251.1c-.008.035-.021.078-.039.132-.421,1.268-.827,2.562-1.22,3.814-2.017,6.427-3.922,12.5-8.332,17.56a27.85,27.85,0,0,0-2.082,2.839c-.347.519-.706,1.055-1.073,1.558q-1.05,1.438-2.087,2.885c-4,5.559-8.144,11.309-13.342,15.973-.151.136-.3.281-.443.43-.124.126-.24.244-.357.35a17.969,17.969,0,0,1-.051-4.96,67.95,67.95,0,0,1,6.42-21.853c2.33-4.969,5-9.887,7.578-14.643q1.1-2.032,2.2-4.068c.451-.841.9-1.92.377-2.808s-1.689-1.013-2.644-1.023h-.151a10.018,10.018,0,0,0-8.5,4.075c-5.932,7.8-13.146,18.4-16.306,31.264-1.057,4.309-2,9.986.089,15.7,1.225,3.346,3.228,4.773,6.7,4.773h.092c3.981-.029,7.579-1.609,11-4.832a97.811,97.811,0,0,0,12.495-14.9c-.232,1.18-.456,2.328-.674,3.478a90.531,90.531,0,0,0-1.867,18.26,3.2,3.2,0,0,0,3.008,3.476,28.068,28.068,0,0,0,4.061.292c.63,0,1.277-.021,1.923-.061a8,8,0,0,0,7.03-4.55,225.412,225.412,0,0,1,14.318-22.7c11.992-17.282,21.913-29.833,32.168-40.7.048-.051.1-.1.15-.151a2.182,2.182,0,0,0,.815-1.96l-.07-.439-.377-.235a5.77,5.77,0,0,0-3.062-.858,8,8,0,0,0-5.646,2.628c-3,3.135-5.486,5.793-7.89,8.576a500.874,500.874,0,0,0-31.7,41.411c2.957-11.926,5.56-21.65,8.156-30.475a56.2,56.2,0,0,0,2.137-10.3,4.312,4.312,0,0,0-2.173-4.528,8.661,8.661,0,0,0-4.33-1.04A10.3,10.3,0,0,0,356.454,181.712Z" transform="translate(-141.894 -75.2)" fill="#fff"/>
    <path id="Trazado_5" data-name="Trazado 5" d="M207.294,176.379a5.781,5.781,0,0,0,4.941,2.88,6.375,6.375,0,0,0,.773-.048c1.671-.206,5.148-.635,6.39-4.006,3.064-8.316,7.6-16.089,11.981-23.605l.936-1.607a397.655,397.655,0,0,1,24.641-36.925c7.176-9.667,14.542-17.112,22.521-22.76,2.251-1.594,4.662-3.053,6.993-4.464l.755-.457c.392-.238,1.584-.961,1.556-2.155s-1.285-1.889-1.7-2.114a3.694,3.694,0,0,0-1.811-.446,7.758,7.758,0,0,0-1.6.21,20.208,20.208,0,0,0-6.345,2.661,76.616,76.616,0,0,0-16.078,13.364,255.533,255.533,0,0,0-26.8,34.521c-3.86,5.839-7.413,11.994-10.849,17.946q-1.511,2.617-3.03,5.228c-.624,1.069-1.25,2.137-1.89,3.227a110.974,110.974,0,0,1,6.107-27.445l.661-1.9c2.355-6.775,4.79-13.781,6.595-20.883a19.082,19.082,0,0,0,.639-7.362c-.431-3.035-2.136-5.05-4.8-5.676a12.522,12.522,0,0,0-2.852-.345,10.133,10.133,0,0,0-7.985,3.875,2.642,2.642,0,0,0-.767,2.369,2.615,2.615,0,0,0,2.061,1.487,3.812,3.812,0,0,1,1.274.431c.022.066.042.325-.251,1.282-.712,2.328-1.672,5.39-2.789,8.433q-.56,1.528-1.125,3.054c-3.525,9.545-7.169,19.416-9.153,29.669-1.364,7.05-2.23,13.012-2.019,19.191C204.407,167.908,204.761,172.407,207.294,176.379Z" transform="translate(-66.045 -13.409)" fill="#fff"/>
    <path id="Trazado_6" data-name="Trazado 6" d="M548.278,209.36v.444c0,.328,0,.655,0,.983.105,6.756,3.9,11.55,10.138,12.825a19.741,19.741,0,0,0,3.938.4,19.371,19.371,0,0,0,6.17-1.01,34.046,34.046,0,0,0,13.955-9.315,235.3,235.3,0,0,0,18.112-22.19,82.682,82.682,0,0,0,7.489-11.576l.017-.035c.388-.766,1.3-2.559-.229-3.633a2.657,2.657,0,0,0-1.532-.494,3.434,3.434,0,0,0-2.561,1.329,32.766,32.766,0,0,0-2.051,2.7c-3.606,5.331-7.578,10.719-12.14,16.473-4.346,5.48-9.271,11.692-15.18,16.6a31.347,31.347,0,0,1-6.2,4.1,3.27,3.27,0,0,1-1.343.423c-.369,0-.766-.163-1.6-.975-2-1.937-2.39-4.381-2.37-7.7.042-6.86,2.634-13.259,5.142-19.447l.029-.071c.057-.141.078-.194.352-.207,4.529-.22,8.813-2.03,13.482-5.7,5.462-4.289,10.065-9.889,14.487-17.622a16.377,16.377,0,0,0,2.3-6.384,5.182,5.182,0,0,0-1.037-4.019,5.1,5.1,0,0,0-3.767-1.594q-.366-.016-.731-.016a25.522,25.522,0,0,0-6.52,1.006c-6.3,1.685-11.038,5.629-15.217,9.639a84.258,84.258,0,0,0-18.364,26.407C550.852,195.577,548.33,202.091,548.278,209.36Zm42.7-50.067c.011.055.023.12.033.2a7.206,7.206,0,0,1-.68,3.485,35.716,35.716,0,0,1-5.478,8.926c-2.511,3.309-5.706,6.971-10.371,9.043a16.288,16.288,0,0,1-2.7.993c.145-.28.321-.553.508-.841.125-.194.249-.386.365-.58,3.923-6.623,8.426-13.465,14.759-18.644.633-.518,1.3-.982,2.016-1.473.493-.341,1-.694,1.5-1.065Z" transform="translate(-298.105 -62.643)" fill="#fff"/>
    <path id="Trazado_7" data-name="Trazado 7" d="M390.109,486.72a2.424,2.424,0,0,0,2.585,3.723q.144.006.288.006c3.4,0,6.529-2.5,8.154-6.515a2.557,2.557,0,0,0,.047-2.189,2.484,2.484,0,0,0-1.921-1.056,7.193,7.193,0,0,0-1.019-.072A8.92,8.92,0,0,0,390.109,486.72Z" transform="translate(-191.197 -283.183)" fill="#fff"/>
    <path id="Trazado_8" data-name="Trazado 8" d="M400.034,168.009a7.6,7.6,0,0,0,.857.049c3.213,0,5.965-2.04,7.752-5.743.467-.968.919-2.077.37-2.989s-1.742-1.032-2.816-1.073c-.082,0-.164,0-.246,0-3.509,0-7.073,2.841-8.114,6.467a2.207,2.207,0,0,0,2.2,3.293Z" transform="translate(-196.482 -65.737)" fill="#fff"/>
  </g>
</svg>
