<svg xmlns="http://www.w3.org/2000/svg" width="27" height="27" viewBox="0 0 27 27">
  <g id="Grupo_113" data-name="Grupo 113" transform="translate(-255.25 -28)">
    <circle id="Elipse_1" data-name="Elipse 1" cx="13.5" cy="13.5" r="13.5" transform="translate(255.25 28)" fill="red"/>
    <g id="youtube-svgrepo-com" transform="translate(262.095 0.264)">
      <g id="Grupo_64" data-name="Grupo 64" transform="translate(0 36.347)">
        <path id="Trazado_9" data-name="Trazado 9" d="M10.663,36.347H2.647A2.654,2.654,0,0,0,0,39V43.47a2.654,2.654,0,0,0,2.647,2.655h8.016a2.654,2.654,0,0,0,2.647-2.655V39A2.654,2.654,0,0,0,10.663,36.347Zm2.1,7.123a2.11,2.11,0,0,1-2.1,2.112H2.647a2.11,2.11,0,0,1-2.1-2.112V39a2.11,2.11,0,0,1,2.1-2.112h8.016A2.11,2.11,0,0,1,12.766,39Z" transform="translate(0 -36.347)" fill="#fff"/>
        <path id="Trazado_10" data-name="Trazado 10" d="M104.825,91.075l-3.763-2.2a.272.272,0,0,0-.409.234v4.408a.272.272,0,0,0,.409.234l3.763-2.2a.272.272,0,0,0,0-.469ZM101.2,93.039v-3.46l2.954,1.73Z" transform="translate(-95.764 -86.284)" fill="#fff"/>
      </g>
    </g>
  </g>
</svg>
