<svg xmlns="http://www.w3.org/2000/svg" width="27" height="27" viewBox="0 0 27 27">
  <g id="Grupo_113" data-name="Grupo 113" transform="translate(-400.25 -4921)">
    <path id="Trazado_11" data-name="Trazado 11" d="M13.5,0A13.5,13.5,0,1,1,0,13.5,13.5,13.5,0,0,1,13.5,0Z" transform="translate(400.25 4921)" fill="#1db954"/>
    <path id="spotify-svgrepo-com" d="M14,7.5A6.5,6.5,0,0,1,7.5,14v1A7.5,7.5,0,0,0,15,7.5ZM7.5,14A6.5,6.5,0,0,1,1,7.5H0A7.5,7.5,0,0,0,7.5,15ZM1,7.5A6.5,6.5,0,0,1,7.5,1V0A7.5,7.5,0,0,0,0,7.5ZM7.5,1A6.5,6.5,0,0,1,14,7.5h1A7.5,7.5,0,0,0,7.5,0ZM3.662,10.116a10.448,10.448,0,0,1,3.392-.228,6.745,6.745,0,0,1,3.2,1.065l.575-.818A7.733,7.733,0,0,0,7.152,8.893a11.446,11.446,0,0,0-3.727.252ZM3.326,7.992c3.446-.61,5.848-.3,7.839,1.131l.583-.812c-2.3-1.65-5.016-1.937-8.6-1.3ZM3.1,5.841A11.436,11.436,0,0,1,7.725,5.3a9.182,9.182,0,0,1,4.363,1.4l.562-.827A10.173,10.173,0,0,0,7.807,4.3a12.433,12.433,0,0,0-5.039.6Z" transform="translate(406 4927)" fill="#fff"/>
  </g>
</svg>
